<svg width="37" height="38" viewBox="0 0 37 38" fill="none" xmlns="http://www.w3.org/2000/svg">
<path d="M34.4433 28.6071C34.8094 28.058 35.1421 27.4892 35.4416 26.9034C34.0995 28.0644 32.58 29.0048 30.9385 29.6897C32.1474 29.4577 33.3231 29.0947 34.4433 28.6071Z" fill="#484848"/>
<path d="M19.4152 35.506C14.6238 34.6848 10.4423 32.0782 7.62517 28.1662C5.15182 24.7243 3.96504 20.5203 4.27559 16.2916C4.58615 12.063 6.38286 8.07956 9.33313 5.03989C10.3092 4.04667 11.385 3.16669 12.5496 2.41714C12.9378 2.03094 13.3593 1.66405 13.7807 1.31656C10.8416 2.21074 8.17968 3.83516 6.03906 6.03821C3.0777 9.07788 1.29207 13.0613 0.970425 17.2901C0.65987 21.5187 1.84652 25.7226 4.31987 29.1646C7.13704 33.0766 11.3184 35.6832 16.1099 36.5043C19.5038 37.0832 22.9865 36.7012 26.1697 35.4016C23.9404 35.853 21.6445 35.8884 19.4152 35.506Z" fill="#484848"/>
<path d="M36.7176 25.0668C36.5956 24.987 36.4514 24.9525 36.3072 24.9694C36.163 24.9862 36.0298 25.0534 35.93 25.1588C34.111 27.061 31.8485 28.4819 29.353 29.2942C26.8463 30.1065 24.1844 30.2849 21.5891 29.8132C17.4077 29.0604 13.7809 26.7478 11.363 23.3014C10.1429 21.5785 9.3 19.6296 8.85635 17.5708C8.4127 15.5119 8.39044 13.3851 8.77864 11.317C9.17792 9.24888 9.98761 7.28162 11.1633 5.5322C12.339 3.78289 13.8474 2.28723 15.6109 1.13419C15.7329 1.05522 15.8216 0.936545 15.8549 0.79868C15.8992 0.660927 15.8992 0.512637 15.8438 0.379653C15.7883 0.246558 15.6885 0.137197 15.5554 0.0704281C15.4223 0.00354785 15.2781 -0.0165249 15.145 0.0137542C11.4183 0.79724 8.02449 2.66966 5.37369 5.39256C2.26814 8.58795 0.382571 12.7756 0.0498331 17.2212C-0.271813 21.6666 0.970466 26.0863 3.57691 29.7048C6.52718 33.815 10.9304 36.5536 15.9548 37.416C20.3025 38.1598 24.7611 37.3941 28.6098 35.2463C32.3808 33.1364 35.32 29.812 36.9504 25.8158C37.0059 25.683 37.017 25.535 36.9726 25.3981C36.9283 25.261 36.8396 25.1436 36.7176 25.0668ZM28.1661 34.4397C24.4949 36.4839 20.247 37.2125 16.1099 36.5043C11.3185 35.6831 7.13711 33.0765 4.31994 29.1645C1.84659 25.7226 0.659938 21.5186 0.970493 17.2899C1.29214 13.0613 3.07777 9.07785 6.03913 6.03829C8.17974 3.83513 10.8416 2.21071 13.7919 1.31653C10.4978 3.9649 8.33506 7.76454 7.74723 11.9455C7.15939 16.1264 8.17973 20.3758 10.5976 23.8324C13.1597 27.4798 17.0084 29.9271 21.4338 30.7234C21.4782 30.7314 21.5225 30.7399 21.5669 30.748C24.018 31.1737 26.5358 31.0497 28.9426 30.3848C31.3383 29.72 33.5565 28.5309 35.442 26.9034C33.8005 30.0741 31.2717 32.6946 28.1661 34.4393V34.4397Z" fill="#484848"/>
</svg>
